<svg width="413" height="112" viewBox="0 0 413 112" fill="none" xmlns="http://www.w3.org/2000/svg">
<path d="M33.4959 70.96C26.0719 70.96 19.8959 69.488 14.9679 66.544C10.1039 63.6 6.45592 59.504 4.02392 54.256C1.65592 48.944 0.471924 42.736 0.471924 35.632C0.471924 28.72 1.65592 22.64 4.02392 17.392C6.39192 12.08 9.97592 7.95197 14.7759 5.00797C19.6399 1.99997 25.7519 0.495972 33.1119 0.495972C37.8479 0.495972 41.8479 0.943972 45.1119 1.83997C48.4399 2.73597 50.9679 3.98397 52.6959 5.58397C54.4239 7.11997 55.2879 8.91197 55.2879 10.96C55.2879 13.136 54.5839 14.8 53.1759 15.952C51.8319 17.04 49.5599 17.712 46.3599 17.968C46.3599 14 45.8799 10.8 44.9199 8.36797C44.0239 5.93597 42.5839 4.17597 40.5999 3.08797C38.6159 1.99997 35.9919 1.45597 32.7279 1.45597C27.5439 1.45597 23.3519 2.60797 20.1519 4.91197C17.0159 7.15197 14.7119 10.8 13.2399 15.856C11.8319 20.848 11.1279 27.44 11.1279 35.632C11.1279 43.888 11.9279 50.544 13.5279 55.6C15.1279 60.592 17.6879 64.24 21.2079 66.544C24.7279 68.848 29.3359 70 35.0319 70C36.8879 70 38.6799 69.872 40.4079 69.616C42.1359 69.296 43.6719 68.944 45.0159 68.56V45.808C45.0159 44.336 44.7279 43.12 44.1519 42.16C43.5759 41.2 42.6799 40.496 41.4639 40.048C40.3119 39.536 38.8719 39.28 37.1439 39.28H36.7599V38.32H61.7199V39.28H61.3359C59.6719 39.28 58.3599 39.536 57.3999 40.048C56.4399 40.56 55.7359 41.328 55.2879 42.352C54.9039 43.376 54.7119 44.656 54.7119 46.192V66.544C51.5119 68.016 48.2159 69.136 44.8239 69.904C41.4319 70.608 37.6559 70.96 33.4959 70.96Z" fill="#ACA2A0"/>
<path d="M27.6479 112V111.04H28.8959C30.6239 111.04 32.0639 110.784 33.2159 110.272C34.4319 109.76 35.3279 108.992 35.9039 107.968C36.4799 106.944 36.7679 105.664 36.7679 104.128V50.944C36.7679 49.472 36.4799 48.256 35.9039 47.296C35.3279 46.336 34.4319 45.632 33.2159 45.184C32.0639 44.672 30.6239 44.416 28.8959 44.416H27.6479V43.456H76.0319L76.6079 60.256H75.6479L75.4559 57.088C75.2639 53.888 74.7199 51.36 73.8239 49.504C72.9279 47.648 71.5199 46.336 69.5999 45.568C67.6799 44.8 65.0879 44.416 61.8239 44.416H46.4639V77.824H70.5599V78.784H46.4639V104.128C46.4639 105.664 46.7519 106.944 47.3279 107.968C47.9039 108.992 48.7679 109.76 49.9199 110.272C51.1359 110.784 52.6079 111.04 54.3359 111.04H55.5839V112H27.6479Z" fill="white"/>
<path d="M106.192 54.48C102.736 54.48 99.8719 53.744 97.5999 52.272C95.3279 50.8 93.6319 48.752 92.5119 46.128C91.3919 43.472 90.8319 40.368 90.8319 36.816C90.8319 33.168 91.4559 30.032 92.7039 27.408C93.9519 24.784 95.7439 22.768 98.0799 21.36C100.416 19.952 103.216 19.248 106.48 19.248C108.752 19.248 110.56 19.504 111.904 20.016C113.248 20.528 114.224 21.216 114.832 22.08C115.44 22.912 115.744 23.808 115.744 24.768C115.744 25.536 115.568 26.112 115.216 26.496C114.896 26.88 114.48 27.072 113.968 27.072C113.968 25.76 113.744 24.64 113.296 23.712C112.848 22.752 112.064 22.016 110.944 21.504C109.824 20.992 108.272 20.736 106.288 20.736C103.504 20.736 101.12 21.376 99.1359 22.656C97.1519 23.904 95.6319 25.728 94.5759 28.128C93.5199 30.528 92.9919 33.424 92.9919 36.816C92.9919 40.112 93.4559 42.976 94.3839 45.408C95.3439 47.808 96.8319 49.664 98.8479 50.976C100.864 52.288 103.488 52.944 106.72 52.944C107.968 52.944 109.2 52.864 110.416 52.704C111.664 52.512 112.688 52.224 113.488 51.84V43.68C113.488 42.496 113.408 41.616 113.248 41.04C113.088 40.464 112.784 40.096 112.336 39.936C111.92 39.744 111.328 39.648 110.56 39.648H109.264V38.448H119.152V39.648H118.384C117.648 39.648 117.072 39.744 116.656 39.936C116.24 40.128 115.952 40.512 115.792 41.088C115.664 41.632 115.6 42.512 115.6 43.728V52.656C114.256 53.296 112.832 53.76 111.328 54.048C109.856 54.336 108.144 54.48 106.192 54.48Z" fill="#ACA2A0"/>
<path d="M121.033 54V52.8H122.329C123.417 52.8 124.217 52.736 124.729 52.608C125.273 52.48 125.625 52.176 125.785 51.696C125.977 51.216 126.073 50.432 126.073 49.344V33.12C126.073 31.968 125.977 31.136 125.785 30.624C125.625 30.112 125.289 29.792 124.777 29.664C124.297 29.536 123.609 29.472 122.713 29.472H121.993V28.272H128.089V49.296C128.089 50.384 128.169 51.184 128.329 51.696C128.521 52.176 128.889 52.48 129.433 52.608C129.977 52.736 130.777 52.8 131.833 52.8H133.081V54H121.033ZM126.841 22.656C126.425 22.656 126.073 22.512 125.785 22.224C125.529 21.904 125.401 21.328 125.401 20.496C125.401 19.664 125.529 19.104 125.785 18.816C126.073 18.496 126.425 18.336 126.841 18.336C127.289 18.336 127.641 18.496 127.897 18.816C128.153 19.104 128.281 19.664 128.281 20.496C128.281 21.328 128.153 21.904 127.897 22.224C127.641 22.512 127.289 22.656 126.841 22.656Z" fill="#ACA2A0"/>
<path d="M146.429 54.48C143.325 54.48 140.893 53.392 139.133 51.216C137.373 49.04 136.493 45.696 136.493 41.184C136.493 36.704 137.341 33.376 139.037 31.2C140.765 29.024 143.293 27.936 146.621 27.936C149.757 27.936 152.173 28.992 153.869 31.104C155.565 33.216 156.413 36.576 156.413 41.184C156.413 45.696 155.565 49.04 153.869 51.216C152.173 53.392 149.693 54.48 146.429 54.48ZM146.429 52.992C148.381 52.992 149.933 52.512 151.085 51.552C152.269 50.592 153.101 49.232 153.581 47.472C154.093 45.68 154.349 43.584 154.349 41.184C154.349 38.496 154.077 36.288 153.533 34.56C152.989 32.832 152.141 31.552 150.989 30.72C149.869 29.856 148.413 29.424 146.621 29.424C144.701 29.424 143.133 29.872 141.917 30.768C140.733 31.632 139.869 32.928 139.325 34.656C138.813 36.384 138.557 38.56 138.557 41.184C138.557 43.68 138.829 45.808 139.373 47.568C139.917 49.328 140.765 50.672 141.917 51.6C143.101 52.528 144.605 52.992 146.429 52.992Z" fill="#ACA2A0"/>
<path d="M163.469 31.824C163.245 31.056 163.005 30.512 162.749 30.192C162.493 29.872 162.141 29.68 161.693 29.616C161.277 29.52 160.637 29.472 159.773 29.472V28.272H168.845V29.472H167.789C166.797 29.472 166.157 29.568 165.869 29.76C165.581 29.952 165.437 30.272 165.437 30.72C165.437 31.104 165.565 31.664 165.821 32.4C166.109 33.104 166.365 33.792 166.589 34.464L170.141 44.256C170.493 45.12 170.845 46.08 171.197 47.136C171.549 48.16 171.885 49.12 172.205 50.016C172.525 50.88 172.765 51.616 172.925 52.224C173.085 51.84 173.293 51.28 173.549 50.544C173.805 49.776 174.125 48.848 174.509 47.76C174.925 46.672 175.389 45.456 175.901 44.112L178.925 36.048C179.437 34.672 179.837 33.568 180.125 32.736C180.445 31.904 180.605 31.248 180.605 30.768C180.605 30.288 180.445 29.952 180.125 29.76C179.837 29.568 179.181 29.472 178.157 29.472H176.909V28.272H185.645V29.472H185.453C184.685 29.472 184.109 29.52 183.725 29.616C183.341 29.712 183.037 29.952 182.813 30.336C182.589 30.688 182.333 31.264 182.045 32.064L173.741 54H171.677L163.469 31.824Z" fill="#ACA2A0"/>
<path d="M195.474 54.48C194.194 54.48 193.026 54.224 191.97 53.712C190.914 53.168 190.082 52.336 189.474 51.216C188.866 50.064 188.562 48.64 188.562 46.944C188.562 44.416 189.458 42.56 191.25 41.376C193.074 40.192 195.89 39.536 199.698 39.408L203.682 39.264V36.192C203.682 34.848 203.554 33.68 203.298 32.688C203.042 31.664 202.482 30.864 201.618 30.288C200.786 29.68 199.522 29.376 197.826 29.376C196.322 29.376 195.154 29.616 194.322 30.096C193.522 30.544 192.962 31.2 192.642 32.064C192.354 32.928 192.21 33.952 192.21 35.136C191.698 35.136 191.298 34.944 191.01 34.56C190.722 34.176 190.578 33.568 190.578 32.736C190.578 31.968 190.802 31.216 191.25 30.48C191.73 29.744 192.498 29.136 193.554 28.656C194.642 28.176 196.066 27.936 197.826 27.936C200.674 27.936 202.69 28.608 203.874 29.952C205.09 31.296 205.698 33.184 205.698 35.616V48.672C205.698 49.792 205.762 50.656 205.89 51.264C206.05 51.872 206.322 52.288 206.706 52.512C207.09 52.704 207.698 52.8 208.53 52.8H208.818V54H204.21L203.826 49.2H203.682C203.266 49.904 202.706 50.672 202.002 51.504C201.298 52.336 200.402 53.04 199.314 53.616C198.258 54.192 196.978 54.48 195.474 54.48ZM195.858 52.896C197.362 52.896 198.69 52.528 199.842 51.792C201.026 51.056 201.954 50.128 202.626 49.008C203.33 47.856 203.682 46.736 203.682 45.648V40.512L199.794 40.656C197.458 40.72 195.618 41.024 194.274 41.568C192.93 42.08 191.97 42.8 191.394 43.728C190.85 44.656 190.578 45.76 190.578 47.04C190.578 48.096 190.754 49.072 191.106 49.968C191.458 50.864 192.018 51.584 192.786 52.128C193.586 52.64 194.61 52.896 195.858 52.896Z" fill="#ACA2A0"/>
<path d="M212.962 54V52.8H213.922C215.01 52.8 215.81 52.736 216.322 52.608C216.866 52.48 217.218 52.176 217.378 51.696C217.57 51.184 217.666 50.384 217.666 49.296V32.928C217.666 31.84 217.57 31.056 217.378 30.576C217.218 30.096 216.882 29.792 216.37 29.664C215.89 29.536 215.202 29.472 214.306 29.472H213.202V28.272H219.346L219.586 32.4H219.778C220.45 31.216 221.154 30.32 221.89 29.712C222.658 29.072 223.506 28.624 224.434 28.368C225.394 28.08 226.45 27.936 227.602 27.936C230.29 27.936 232.274 28.672 233.554 30.144C234.866 31.616 235.522 33.872 235.522 36.912V49.296C235.522 50.384 235.602 51.184 235.762 51.696C235.954 52.176 236.306 52.48 236.818 52.608C237.362 52.736 238.162 52.8 239.218 52.8H239.842V54H233.506V36.672C233.506 34.56 233.042 32.848 232.114 31.536C231.186 30.192 229.554 29.52 227.218 29.52C225.266 29.52 223.73 29.952 222.61 30.816C221.522 31.648 220.754 32.72 220.306 34.032C219.89 35.312 219.682 36.672 219.682 38.112V49.344C219.682 50.432 219.762 51.216 219.922 51.696C220.114 52.176 220.466 52.48 220.978 52.608C221.522 52.736 222.322 52.8 223.378 52.8H224.05V54H212.962Z" fill="#ACA2A0"/>
<path d="M250.693 54.48C249.413 54.48 248.245 54.224 247.189 53.712C246.133 53.168 245.301 52.336 244.693 51.216C244.085 50.064 243.781 48.64 243.781 46.944C243.781 44.416 244.677 42.56 246.469 41.376C248.293 40.192 251.109 39.536 254.917 39.408L258.901 39.264V36.192C258.901 34.848 258.773 33.68 258.517 32.688C258.261 31.664 257.701 30.864 256.837 30.288C256.005 29.68 254.741 29.376 253.045 29.376C251.541 29.376 250.373 29.616 249.541 30.096C248.741 30.544 248.181 31.2 247.861 32.064C247.573 32.928 247.429 33.952 247.429 35.136C246.917 35.136 246.517 34.944 246.229 34.56C245.941 34.176 245.797 33.568 245.797 32.736C245.797 31.968 246.021 31.216 246.469 30.48C246.949 29.744 247.717 29.136 248.773 28.656C249.861 28.176 251.285 27.936 253.045 27.936C255.893 27.936 257.909 28.608 259.093 29.952C260.309 31.296 260.917 33.184 260.917 35.616V48.672C260.917 49.792 260.981 50.656 261.109 51.264C261.269 51.872 261.541 52.288 261.925 52.512C262.309 52.704 262.917 52.8 263.749 52.8H264.037V54H259.429L259.045 49.2H258.901C258.485 49.904 257.925 50.672 257.221 51.504C256.517 52.336 255.621 53.04 254.533 53.616C253.477 54.192 252.197 54.48 250.693 54.48ZM251.077 52.896C252.581 52.896 253.909 52.528 255.061 51.792C256.245 51.056 257.173 50.128 257.845 49.008C258.549 47.856 258.901 46.736 258.901 45.648V40.512L255.013 40.656C252.677 40.72 250.837 41.024 249.493 41.568C248.149 42.08 247.189 42.8 246.613 43.728C246.069 44.656 245.797 45.76 245.797 47.04C245.797 48.096 245.973 49.072 246.325 49.968C246.677 50.864 247.237 51.584 248.005 52.128C248.805 52.64 249.829 52.896 251.077 52.896Z" fill="#ACA2A0"/>
<path d="M281.178 54V52.8H282.954C283.722 52.8 284.314 52.72 284.73 52.56C285.178 52.368 285.482 51.984 285.642 51.408C285.834 50.832 285.93 49.968 285.93 48.816V24.912C285.93 23.728 285.834 22.864 285.642 22.32C285.482 21.744 285.178 21.376 284.73 21.216C284.314 21.024 283.722 20.928 282.954 20.928H281.178V19.728H303.066L303.306 27.696H302.01L301.818 24.624C301.786 23.76 301.69 23.088 301.53 22.608C301.37 22.096 301.066 21.728 300.618 21.504C300.17 21.28 299.514 21.168 298.65 21.168H287.994V36.432H299.754V37.92H287.994V48.768C287.994 49.92 288.074 50.8 288.234 51.408C288.394 51.984 288.682 52.368 289.098 52.56C289.546 52.72 290.17 52.8 290.97 52.8H293.946V54H281.178Z" fill="#ACA2A0"/>
<path d="M307.079 54V52.8H308.375C309.463 52.8 310.263 52.736 310.775 52.608C311.319 52.48 311.671 52.176 311.831 51.696C312.023 51.216 312.119 50.432 312.119 49.344V33.12C312.119 31.968 312.023 31.136 311.831 30.624C311.671 30.112 311.335 29.792 310.823 29.664C310.343 29.536 309.655 29.472 308.759 29.472H308.039V28.272H314.135V49.296C314.135 50.384 314.215 51.184 314.375 51.696C314.567 52.176 314.935 52.48 315.479 52.608C316.023 52.736 316.823 52.8 317.879 52.8H319.127V54H307.079ZM312.887 22.656C312.471 22.656 312.119 22.512 311.831 22.224C311.575 21.904 311.447 21.328 311.447 20.496C311.447 19.664 311.575 19.104 311.831 18.816C312.119 18.496 312.471 18.336 312.887 18.336C313.335 18.336 313.687 18.496 313.943 18.816C314.199 19.104 314.327 19.664 314.327 20.496C314.327 21.328 314.199 21.904 313.943 22.224C313.687 22.512 313.335 22.656 312.887 22.656Z" fill="#ACA2A0"/>
<path d="M321.244 54V52.8H322.204C323.292 52.8 324.092 52.736 324.604 52.608C325.148 52.48 325.5 52.176 325.66 51.696C325.852 51.184 325.948 50.384 325.948 49.296V32.928C325.948 31.84 325.852 31.056 325.66 30.576C325.5 30.096 325.164 29.792 324.652 29.664C324.172 29.536 323.484 29.472 322.588 29.472H321.484V28.272H327.628L327.868 32.4H328.06C328.732 31.216 329.436 30.32 330.172 29.712C330.94 29.072 331.788 28.624 332.716 28.368C333.676 28.08 334.732 27.936 335.884 27.936C338.572 27.936 340.556 28.672 341.836 30.144C343.148 31.616 343.804 33.872 343.804 36.912V49.296C343.804 50.384 343.884 51.184 344.044 51.696C344.236 52.176 344.588 52.48 345.1 52.608C345.644 52.736 346.444 52.8 347.5 52.8H348.124V54H341.788V36.672C341.788 34.56 341.324 32.848 340.396 31.536C339.468 30.192 337.836 29.52 335.5 29.52C333.548 29.52 332.012 29.952 330.892 30.816C329.804 31.648 329.036 32.72 328.588 34.032C328.172 35.312 327.964 36.672 327.964 38.112V49.344C327.964 50.432 328.044 51.216 328.204 51.696C328.396 52.176 328.748 52.48 329.26 52.608C329.804 52.736 330.604 52.8 331.66 52.8H332.332V54H321.244Z" fill="#ACA2A0"/>
<path d="M362.382 54.48C359.31 54.48 356.878 53.344 355.086 51.072C353.294 48.8 352.398 45.584 352.398 41.424C352.398 36.88 353.214 33.504 354.846 31.296C356.51 29.056 358.878 27.936 361.95 27.936C364.702 27.936 366.862 28.976 368.43 31.056C370.03 33.136 370.83 36.08 370.83 39.888V40.896H354.51C354.478 43.552 354.798 45.776 355.47 47.568C356.142 49.36 357.086 50.704 358.302 51.6C359.518 52.464 360.942 52.896 362.574 52.896C363.79 52.896 364.83 52.72 365.694 52.368C366.59 51.984 367.358 51.488 367.998 50.88C368.638 50.24 369.134 49.568 369.486 48.864C369.646 48.96 369.774 49.088 369.87 49.248C369.966 49.408 370.014 49.616 370.014 49.872C370.014 50.448 369.726 51.104 369.15 51.84C368.574 52.544 367.726 53.168 366.606 53.712C365.486 54.224 364.078 54.48 362.382 54.48ZM368.718 39.456C368.718 37.44 368.462 35.696 367.95 34.224C367.438 32.72 366.67 31.552 365.646 30.72C364.654 29.856 363.406 29.424 361.902 29.424C360.238 29.424 358.894 29.84 357.87 30.672C356.846 31.472 356.078 32.624 355.566 34.128C355.054 35.632 354.734 37.408 354.606 39.456H368.718Z" fill="#ACA2A0"/>
<path d="M373.759 54V52.8H375.055C376.143 52.8 376.943 52.736 377.455 52.608C377.999 52.48 378.351 52.176 378.511 51.696C378.703 51.184 378.799 50.384 378.799 49.296V22.368C378.799 21.216 378.703 20.384 378.511 19.872C378.351 19.36 378.015 19.04 377.503 18.912C377.023 18.784 376.335 18.72 375.439 18.72H373.759V17.52H380.815V49.296C380.815 50.384 380.895 51.184 381.055 51.696C381.247 52.176 381.615 52.48 382.159 52.608C382.703 52.736 383.503 52.8 384.559 52.8H385.807V54H373.759Z" fill="#ACA2A0"/>
<path d="M386.556 54V52.8H387.852C388.94 52.8 389.74 52.736 390.252 52.608C390.796 52.48 391.148 52.176 391.308 51.696C391.5 51.184 391.596 50.384 391.596 49.296V22.368C391.596 21.216 391.5 20.384 391.308 19.872C391.148 19.36 390.812 19.04 390.3 18.912C389.82 18.784 389.132 18.72 388.236 18.72H386.556V17.52H393.612V49.296C393.612 50.384 393.692 51.184 393.852 51.696C394.044 52.176 394.412 52.48 394.956 52.608C395.5 52.736 396.3 52.8 397.356 52.8H398.604V54H386.556Z" fill="#ACA2A0"/>
<path d="M400.361 54V52.8H401.657C402.745 52.8 403.545 52.736 404.057 52.608C404.601 52.48 404.953 52.176 405.113 51.696C405.305 51.216 405.401 50.432 405.401 49.344V33.12C405.401 31.968 405.305 31.136 405.113 30.624C404.953 30.112 404.617 29.792 404.105 29.664C403.625 29.536 402.937 29.472 402.041 29.472H401.321V28.272H407.417V49.296C407.417 50.384 407.497 51.184 407.657 51.696C407.849 52.176 408.217 52.48 408.761 52.608C409.305 52.736 410.105 52.8 411.161 52.8H412.409V54H400.361ZM406.169 22.656C405.753 22.656 405.401 22.512 405.113 22.224C404.857 21.904 404.729 21.328 404.729 20.496C404.729 19.664 404.857 19.104 405.113 18.816C405.401 18.496 405.753 18.336 406.169 18.336C406.617 18.336 406.969 18.496 407.225 18.816C407.481 19.104 407.609 19.664 407.609 20.496C407.609 21.328 407.481 21.904 407.225 22.224C406.969 22.512 406.617 22.656 406.169 22.656Z" fill="#ACA2A0"/>
<path d="M87.9279 84V83.4H88.4319C88.7999 83.4 89.0719 83.376 89.2479 83.328C89.4239 83.264 89.5679 83.144 89.6799 82.968C89.7919 82.776 89.9199 82.488 90.0639 82.104L95.3919 66.864H96.3519L101.704 82.224C101.832 82.576 101.952 82.84 102.064 83.016C102.176 83.176 102.32 83.28 102.496 83.328C102.672 83.376 102.944 83.4 103.312 83.4H103.792V84H98.5119V83.4H99.2799C99.8559 83.4 100.224 83.336 100.384 83.208C100.544 83.08 100.624 82.888 100.624 82.632C100.624 82.456 100.584 82.24 100.504 81.984C100.424 81.712 100.336 81.448 100.24 81.192C100.16 80.92 100.096 80.712 100.048 80.568L99.1599 78.048H92.3679L91.4799 80.544C91.4319 80.688 91.3599 80.896 91.2639 81.168C91.1839 81.424 91.1039 81.688 91.0239 81.96C90.9439 82.232 90.9039 82.456 90.9039 82.632C90.9039 82.888 90.9839 83.08 91.1439 83.208C91.3199 83.336 91.6959 83.4 92.2719 83.4H93.3999V84H87.9279ZM92.6079 77.304H98.8959L97.1199 72.096C96.9759 71.648 96.8159 71.176 96.6399 70.68C96.4799 70.168 96.3199 69.68 96.1599 69.216C96.0159 68.736 95.8879 68.32 95.7759 67.968C95.7279 68.192 95.6479 68.464 95.5359 68.784C95.4399 69.088 95.3279 69.424 95.1999 69.792C95.0879 70.16 94.9679 70.528 94.8399 70.896C94.7279 71.248 94.6159 71.568 94.5039 71.856L92.6079 77.304Z" fill="white"/>
<path d="M104.901 84V83.4H105.333C105.781 83.4 106.125 83.368 106.365 83.304C106.621 83.24 106.789 83.08 106.869 82.824C106.965 82.552 107.013 82.136 107.013 81.576V73.464C107.013 72.92 106.965 72.528 106.869 72.288C106.789 72.048 106.613 71.896 106.341 71.832C106.085 71.768 105.685 71.736 105.141 71.736H104.781V71.136H107.805L107.973 73.752H108.021C108.229 73.288 108.461 72.84 108.717 72.408C108.989 71.976 109.341 71.624 109.773 71.352C110.205 71.08 110.733 70.944 111.357 70.944C112.029 70.944 112.549 71.096 112.917 71.4C113.301 71.704 113.493 72.104 113.493 72.6C113.493 72.856 113.421 73.088 113.277 73.296C113.149 73.488 112.933 73.584 112.629 73.584C112.629 73.12 112.573 72.76 112.461 72.504C112.349 72.232 112.173 72.04 111.933 71.928C111.709 71.8 111.421 71.736 111.069 71.736C110.605 71.736 110.181 71.896 109.797 72.216C109.429 72.536 109.109 72.96 108.837 73.488C108.581 74.016 108.381 74.608 108.237 75.264C108.093 75.92 108.021 76.592 108.021 77.28V81.6C108.021 82.16 108.069 82.568 108.165 82.824C108.261 83.08 108.429 83.24 108.669 83.304C108.909 83.368 109.253 83.4 109.701 83.4H110.493V84H104.901Z" fill="white"/>
<path d="M121.747 89.76V89.16H122.443C122.891 89.16 123.235 89.128 123.475 89.064C123.731 89 123.899 88.832 123.979 88.56C124.075 88.304 124.123 87.896 124.123 87.336V84.792C124.123 84.328 124.123 83.872 124.123 83.424C124.123 82.976 124.123 82.584 124.123 82.248C124.139 81.896 124.155 81.632 124.171 81.456H124.123C123.899 82 123.611 82.488 123.259 82.92C122.923 83.336 122.491 83.664 121.963 83.904C121.451 84.128 120.819 84.24 120.067 84.24C118.579 84.24 117.419 83.72 116.587 82.68C115.771 81.624 115.363 79.944 115.363 77.64C115.363 76.088 115.547 74.816 115.915 73.824C116.283 72.832 116.835 72.096 117.571 71.616C118.307 71.136 119.211 70.896 120.283 70.896C121.291 70.896 122.099 71.12 122.707 71.568C123.315 72 123.771 72.64 124.075 73.488H124.171L124.315 71.136H127.243V71.736H127.003C126.459 71.736 126.051 71.768 125.779 71.832C125.523 71.896 125.347 72.056 125.251 72.312C125.171 72.552 125.131 72.944 125.131 73.488V87.336C125.131 87.912 125.171 88.328 125.251 88.584C125.347 88.84 125.515 89 125.755 89.064C126.011 89.128 126.363 89.16 126.811 89.16H127.051V89.76H121.747ZM120.163 83.448C120.707 83.448 121.219 83.36 121.699 83.184C122.179 82.992 122.595 82.68 122.947 82.248C123.315 81.8 123.603 81.2 123.811 80.448C124.019 79.68 124.123 78.728 124.123 77.592C124.123 76.376 124.011 75.328 123.787 74.448C123.563 73.568 123.179 72.888 122.635 72.408C122.091 71.928 121.347 71.688 120.403 71.688C119.475 71.688 118.715 71.912 118.123 72.36C117.531 72.792 117.091 73.448 116.803 74.328C116.531 75.208 116.395 76.32 116.395 77.664C116.395 78.976 116.523 80.064 116.779 80.928C117.051 81.776 117.467 82.408 118.027 82.824C118.587 83.24 119.299 83.448 120.163 83.448Z" fill="white"/>
<path d="M134.493 84.24C133.197 84.24 132.221 83.864 131.565 83.112C130.909 82.344 130.581 81.168 130.581 79.584V73.464C130.581 72.92 130.533 72.528 130.437 72.288C130.357 72.048 130.181 71.896 129.909 71.832C129.653 71.768 129.253 71.736 128.709 71.736H128.205V71.136H131.589V79.608C131.589 80.344 131.669 81.008 131.829 81.6C132.005 82.176 132.317 82.632 132.765 82.968C133.213 83.288 133.853 83.448 134.685 83.448C135.533 83.448 136.237 83.248 136.797 82.848C137.357 82.432 137.781 81.896 138.069 81.24C138.357 80.584 138.501 79.864 138.501 79.08V73.488C138.501 72.944 138.453 72.552 138.357 72.312C138.277 72.056 138.101 71.896 137.829 71.832C137.573 71.768 137.173 71.736 136.629 71.736H136.269V71.136H139.509V81.672C139.509 82.2 139.549 82.592 139.629 82.848C139.725 83.088 139.893 83.24 140.133 83.304C140.373 83.368 140.725 83.4 141.189 83.4H141.813V84H138.669L138.549 81.864H138.453C138.277 82.2 138.061 82.52 137.805 82.824C137.565 83.112 137.285 83.36 136.965 83.568C136.645 83.776 136.277 83.936 135.861 84.048C135.445 84.176 134.989 84.24 134.493 84.24Z" fill="white"/>
<path d="M143.024 84V83.4H143.672C144.216 83.4 144.616 83.368 144.872 83.304C145.144 83.24 145.32 83.088 145.4 82.848C145.496 82.608 145.544 82.216 145.544 81.672V73.56C145.544 72.984 145.496 72.568 145.4 72.312C145.32 72.056 145.152 71.896 144.896 71.832C144.656 71.768 144.312 71.736 143.864 71.736H143.504V71.136H146.552V81.648C146.552 82.192 146.592 82.592 146.672 82.848C146.768 83.088 146.952 83.24 147.224 83.304C147.496 83.368 147.896 83.4 148.424 83.4H149.048V84H143.024ZM145.928 68.328C145.72 68.328 145.544 68.256 145.4 68.112C145.272 67.952 145.208 67.664 145.208 67.248C145.208 66.832 145.272 66.552 145.4 66.408C145.544 66.248 145.72 66.168 145.928 66.168C146.152 66.168 146.328 66.248 146.456 66.408C146.584 66.552 146.648 66.832 146.648 67.248C146.648 67.664 146.584 67.952 146.456 68.112C146.328 68.256 146.152 68.328 145.928 68.328Z" fill="white"/>
<path d="M154.282 84.24C153.29 84.24 152.578 83.968 152.146 83.424C151.73 82.88 151.522 81.936 151.522 80.592V71.904H149.65V71.328C149.986 71.328 150.29 71.28 150.562 71.184C150.834 71.088 151.058 70.952 151.234 70.776C151.41 70.6 151.562 70.32 151.69 69.936C151.818 69.536 151.89 68.968 151.906 68.232H152.53V71.136H155.602V71.904H152.53V80.784C152.53 81.76 152.674 82.456 152.962 82.872C153.266 83.288 153.746 83.496 154.402 83.496C154.674 83.496 154.914 83.488 155.122 83.472C155.33 83.456 155.562 83.424 155.818 83.376V84.072C155.562 84.12 155.306 84.16 155.05 84.192C154.794 84.224 154.538 84.24 154.282 84.24Z" fill="white"/>
<path d="M162.917 84.24C161.381 84.24 160.165 83.672 159.269 82.536C158.373 81.4 157.925 79.792 157.925 77.712C157.925 75.44 158.333 73.752 159.149 72.648C159.981 71.528 161.165 70.968 162.701 70.968C164.077 70.968 165.157 71.488 165.941 72.528C166.741 73.568 167.141 75.04 167.141 76.944V77.448H158.981C158.965 78.776 159.125 79.888 159.461 80.784C159.797 81.68 160.269 82.352 160.877 82.8C161.485 83.232 162.197 83.448 163.013 83.448C163.621 83.448 164.141 83.36 164.573 83.184C165.021 82.992 165.405 82.744 165.725 82.44C166.045 82.12 166.293 81.784 166.469 81.432C166.549 81.48 166.613 81.544 166.661 81.624C166.709 81.704 166.733 81.808 166.733 81.936C166.733 82.224 166.589 82.552 166.301 82.92C166.013 83.272 165.589 83.584 165.029 83.856C164.469 84.112 163.765 84.24 162.917 84.24ZM166.085 76.728C166.085 75.72 165.957 74.848 165.701 74.112C165.445 73.36 165.061 72.776 164.549 72.36C164.053 71.928 163.429 71.712 162.677 71.712C161.845 71.712 161.173 71.92 160.661 72.336C160.149 72.736 159.765 73.312 159.509 74.064C159.253 74.816 159.093 75.704 159.029 76.728H166.085Z" fill="white"/>
<path d="M173.454 84.24C172.462 84.24 171.75 83.968 171.318 83.424C170.902 82.88 170.694 81.936 170.694 80.592V71.904H168.822V71.328C169.158 71.328 169.462 71.28 169.734 71.184C170.006 71.088 170.23 70.952 170.406 70.776C170.582 70.6 170.734 70.32 170.862 69.936C170.99 69.536 171.062 68.968 171.078 68.232H171.702V71.136H174.774V71.904H171.702V80.784C171.702 81.76 171.846 82.456 172.134 82.872C172.438 83.288 172.918 83.496 173.574 83.496C173.846 83.496 174.086 83.488 174.294 83.472C174.502 83.456 174.734 83.424 174.99 83.376V84.072C174.734 84.12 174.478 84.16 174.222 84.192C173.966 84.224 173.71 84.24 173.454 84.24Z" fill="white"/>
<path d="M182.305 84.24C181.009 84.24 180.033 83.864 179.377 83.112C178.721 82.344 178.393 81.168 178.393 79.584V73.464C178.393 72.92 178.345 72.528 178.249 72.288C178.169 72.048 177.993 71.896 177.721 71.832C177.465 71.768 177.065 71.736 176.521 71.736H176.017V71.136H179.401V79.608C179.401 80.344 179.481 81.008 179.641 81.6C179.817 82.176 180.129 82.632 180.577 82.968C181.025 83.288 181.665 83.448 182.497 83.448C183.345 83.448 184.049 83.248 184.609 82.848C185.169 82.432 185.593 81.896 185.881 81.24C186.169 80.584 186.313 79.864 186.313 79.08V73.488C186.313 72.944 186.265 72.552 186.169 72.312C186.089 72.056 185.913 71.896 185.641 71.832C185.385 71.768 184.985 71.736 184.441 71.736H184.081V71.136H187.321V81.672C187.321 82.2 187.361 82.592 187.441 82.848C187.537 83.088 187.705 83.24 187.945 83.304C188.185 83.368 188.537 83.4 189.001 83.4H189.625V84H186.481L186.361 81.864H186.265C186.089 82.2 185.873 82.52 185.617 82.824C185.377 83.112 185.097 83.36 184.777 83.568C184.457 83.776 184.089 83.936 183.673 84.048C183.257 84.176 182.801 84.24 182.305 84.24Z" fill="white"/>
<path d="M191.245 84V83.4H191.677C192.125 83.4 192.469 83.368 192.709 83.304C192.965 83.24 193.133 83.08 193.213 82.824C193.309 82.552 193.357 82.136 193.357 81.576V73.464C193.357 72.92 193.309 72.528 193.213 72.288C193.133 72.048 192.957 71.896 192.685 71.832C192.429 71.768 192.029 71.736 191.485 71.736H191.125V71.136H194.149L194.317 73.752H194.365C194.573 73.288 194.805 72.84 195.061 72.408C195.333 71.976 195.685 71.624 196.117 71.352C196.549 71.08 197.077 70.944 197.701 70.944C198.373 70.944 198.893 71.096 199.261 71.4C199.645 71.704 199.837 72.104 199.837 72.6C199.837 72.856 199.765 73.088 199.621 73.296C199.493 73.488 199.277 73.584 198.973 73.584C198.973 73.12 198.917 72.76 198.805 72.504C198.693 72.232 198.517 72.04 198.277 71.928C198.053 71.8 197.765 71.736 197.413 71.736C196.949 71.736 196.525 71.896 196.141 72.216C195.773 72.536 195.453 72.96 195.181 73.488C194.925 74.016 194.725 74.608 194.581 75.264C194.437 75.92 194.365 76.592 194.365 77.28V81.6C194.365 82.16 194.413 82.568 194.509 82.824C194.605 83.08 194.773 83.24 195.013 83.304C195.253 83.368 195.597 83.4 196.045 83.4H196.837V84H191.245Z" fill="white"/>
<path d="M204.502 84.24C203.862 84.24 203.278 84.112 202.75 83.856C202.222 83.584 201.806 83.168 201.502 82.608C201.198 82.032 201.046 81.32 201.046 80.472C201.046 79.208 201.494 78.28 202.39 77.688C203.302 77.096 204.71 76.768 206.614 76.704L208.606 76.632V75.096C208.606 74.424 208.542 73.84 208.414 73.344C208.286 72.832 208.006 72.432 207.574 72.144C207.158 71.84 206.526 71.688 205.678 71.688C204.926 71.688 204.342 71.808 203.926 72.048C203.526 72.272 203.246 72.6 203.086 73.032C202.942 73.464 202.87 73.976 202.87 74.568C202.614 74.568 202.414 74.472 202.27 74.28C202.126 74.088 202.054 73.784 202.054 73.368C202.054 72.984 202.166 72.608 202.39 72.24C202.63 71.872 203.014 71.568 203.542 71.328C204.086 71.088 204.798 70.968 205.678 70.968C207.102 70.968 208.11 71.304 208.702 71.976C209.31 72.648 209.614 73.592 209.614 74.808V81.336C209.614 81.896 209.646 82.328 209.71 82.632C209.79 82.936 209.926 83.144 210.118 83.256C210.31 83.352 210.614 83.4 211.03 83.4H211.174V84H208.87L208.678 81.6H208.606C208.398 81.952 208.118 82.336 207.766 82.752C207.414 83.168 206.966 83.52 206.422 83.808C205.894 84.096 205.254 84.24 204.502 84.24ZM204.694 83.448C205.446 83.448 206.11 83.264 206.686 82.896C207.278 82.528 207.742 82.064 208.078 81.504C208.43 80.928 208.606 80.368 208.606 79.824V77.256L206.662 77.328C205.494 77.36 204.574 77.512 203.902 77.784C203.23 78.04 202.75 78.4 202.462 78.864C202.19 79.328 202.054 79.88 202.054 80.52C202.054 81.048 202.142 81.536 202.318 81.984C202.494 82.432 202.774 82.792 203.158 83.064C203.558 83.32 204.07 83.448 204.694 83.448Z" fill="white"/>
<path d="M225.097 84.24C223.561 84.24 222.345 83.672 221.449 82.536C220.553 81.4 220.105 79.792 220.105 77.712C220.105 75.44 220.513 73.752 221.329 72.648C222.161 71.528 223.345 70.968 224.881 70.968C226.257 70.968 227.337 71.488 228.121 72.528C228.921 73.568 229.321 75.04 229.321 76.944V77.448H221.161C221.145 78.776 221.305 79.888 221.641 80.784C221.977 81.68 222.449 82.352 223.057 82.8C223.665 83.232 224.377 83.448 225.193 83.448C225.801 83.448 226.321 83.36 226.753 83.184C227.201 82.992 227.585 82.744 227.905 82.44C228.225 82.12 228.473 81.784 228.649 81.432C228.729 81.48 228.793 81.544 228.841 81.624C228.889 81.704 228.913 81.808 228.913 81.936C228.913 82.224 228.769 82.552 228.481 82.92C228.193 83.272 227.769 83.584 227.209 83.856C226.649 84.112 225.945 84.24 225.097 84.24ZM228.265 76.728C228.265 75.72 228.137 74.848 227.881 74.112C227.625 73.36 227.241 72.776 226.729 72.36C226.233 71.928 225.609 71.712 224.857 71.712C224.025 71.712 223.353 71.92 222.841 72.336C222.329 72.736 221.945 73.312 221.689 74.064C221.433 74.816 221.273 75.704 221.209 76.728H228.265Z" fill="white"/>
<path d="M237.956 84V83.4H238.844C239.244 83.4 239.548 83.36 239.756 83.28C239.964 83.184 240.108 82.992 240.188 82.704C240.284 82.4 240.332 81.96 240.332 81.384V69.48C240.332 68.888 240.284 68.448 240.188 68.16C240.108 67.872 239.964 67.688 239.756 67.608C239.548 67.512 239.244 67.464 238.844 67.464H237.956V66.864H243.668V67.464H242.852C242.452 67.464 242.14 67.512 241.916 67.608C241.708 67.688 241.564 67.872 241.484 68.16C241.404 68.448 241.364 68.888 241.364 69.48V81.384C241.364 81.96 241.404 82.4 241.484 82.704C241.564 82.992 241.708 83.184 241.916 83.28C242.14 83.36 242.452 83.4 242.852 83.4H243.668V84H237.956Z" fill="white"/>
<path d="M245.708 84V83.4H246.188C246.732 83.4 247.132 83.368 247.388 83.304C247.66 83.24 247.836 83.088 247.916 82.848C248.012 82.592 248.06 82.192 248.06 81.648V73.464C248.06 72.92 248.012 72.528 247.916 72.288C247.836 72.048 247.668 71.896 247.412 71.832C247.172 71.768 246.828 71.736 246.38 71.736H245.828V71.136H248.9L249.02 73.2H249.116C249.452 72.608 249.804 72.16 250.172 71.856C250.556 71.536 250.98 71.312 251.444 71.184C251.924 71.04 252.452 70.968 253.028 70.968C254.372 70.968 255.364 71.336 256.004 72.072C256.66 72.808 256.988 73.936 256.988 75.456V81.648C256.988 82.192 257.028 82.592 257.108 82.848C257.204 83.088 257.38 83.24 257.636 83.304C257.908 83.368 258.308 83.4 258.836 83.4H259.148V84H255.98V75.336C255.98 74.28 255.748 73.424 255.284 72.768C254.82 72.096 254.004 71.76 252.836 71.76C251.86 71.76 251.092 71.976 250.532 72.408C249.988 72.824 249.604 73.36 249.38 74.016C249.172 74.656 249.068 75.336 249.068 76.056V81.672C249.068 82.216 249.108 82.608 249.188 82.848C249.284 83.088 249.46 83.24 249.716 83.304C249.988 83.368 250.388 83.4 250.916 83.4H251.252V84H245.708Z" fill="white"/>
<path d="M264.837 84.24C263.845 84.24 263.133 83.968 262.701 83.424C262.285 82.88 262.077 81.936 262.077 80.592V71.904H260.205V71.328C260.541 71.328 260.845 71.28 261.117 71.184C261.389 71.088 261.613 70.952 261.789 70.776C261.965 70.6 262.117 70.32 262.245 69.936C262.373 69.536 262.445 68.968 262.461 68.232H263.085V71.136H266.157V71.904H263.085V80.784C263.085 81.76 263.229 82.456 263.517 82.872C263.821 83.288 264.301 83.496 264.957 83.496C265.229 83.496 265.469 83.488 265.677 83.472C265.885 83.456 266.117 83.424 266.373 83.376V84.072C266.117 84.12 265.861 84.16 265.605 84.192C265.349 84.224 265.093 84.24 264.837 84.24Z" fill="white"/>
<path d="M273.472 84.24C271.936 84.24 270.72 83.672 269.824 82.536C268.928 81.4 268.48 79.792 268.48 77.712C268.48 75.44 268.888 73.752 269.704 72.648C270.536 71.528 271.72 70.968 273.256 70.968C274.632 70.968 275.712 71.488 276.496 72.528C277.296 73.568 277.696 75.04 277.696 76.944V77.448H269.536C269.52 78.776 269.68 79.888 270.016 80.784C270.352 81.68 270.824 82.352 271.432 82.8C272.04 83.232 272.752 83.448 273.568 83.448C274.176 83.448 274.696 83.36 275.128 83.184C275.576 82.992 275.96 82.744 276.28 82.44C276.6 82.12 276.848 81.784 277.024 81.432C277.104 81.48 277.168 81.544 277.216 81.624C277.264 81.704 277.288 81.808 277.288 81.936C277.288 82.224 277.144 82.552 276.856 82.92C276.568 83.272 276.144 83.584 275.584 83.856C275.024 84.112 274.32 84.24 273.472 84.24ZM276.64 76.728C276.64 75.72 276.512 74.848 276.256 74.112C276 73.36 275.616 72.776 275.104 72.36C274.608 71.928 273.984 71.712 273.232 71.712C272.4 71.712 271.728 71.92 271.216 72.336C270.704 72.736 270.32 73.312 270.064 74.064C269.808 74.816 269.648 75.704 269.584 76.728H276.64Z" fill="white"/>
<path d="M280.073 84V83.4H280.505C280.953 83.4 281.297 83.368 281.537 83.304C281.793 83.24 281.961 83.08 282.041 82.824C282.137 82.552 282.185 82.136 282.185 81.576V73.464C282.185 72.92 282.137 72.528 282.041 72.288C281.961 72.048 281.785 71.896 281.513 71.832C281.257 71.768 280.857 71.736 280.313 71.736H279.953V71.136H282.977L283.145 73.752H283.193C283.401 73.288 283.633 72.84 283.889 72.408C284.161 71.976 284.513 71.624 284.945 71.352C285.377 71.08 285.905 70.944 286.529 70.944C287.201 70.944 287.721 71.096 288.089 71.4C288.473 71.704 288.665 72.104 288.665 72.6C288.665 72.856 288.593 73.088 288.449 73.296C288.321 73.488 288.105 73.584 287.801 73.584C287.801 73.12 287.745 72.76 287.633 72.504C287.521 72.232 287.345 72.04 287.105 71.928C286.881 71.8 286.593 71.736 286.241 71.736C285.777 71.736 285.353 71.896 284.969 72.216C284.601 72.536 284.281 72.96 284.009 73.488C283.753 74.016 283.553 74.608 283.409 75.264C283.265 75.92 283.193 76.592 283.193 77.28V81.6C283.193 82.16 283.241 82.568 283.337 82.824C283.433 83.08 283.601 83.24 283.841 83.304C284.081 83.368 284.425 83.4 284.873 83.4H285.665V84H280.073Z" fill="white"/>
<path d="M289.719 84V83.4H290.367C290.911 83.4 291.311 83.368 291.567 83.304C291.839 83.24 292.015 83.088 292.095 82.848C292.191 82.608 292.239 82.216 292.239 81.672V73.56C292.239 72.984 292.191 72.568 292.095 72.312C292.015 72.056 291.847 71.896 291.591 71.832C291.351 71.768 291.007 71.736 290.559 71.736H290.199V71.136H293.247V81.648C293.247 82.192 293.287 82.592 293.367 82.848C293.463 83.088 293.647 83.24 293.919 83.304C294.191 83.368 294.591 83.4 295.119 83.4H295.743V84H289.719ZM292.623 68.328C292.415 68.328 292.239 68.256 292.095 68.112C291.967 67.952 291.903 67.664 291.903 67.248C291.903 66.832 291.967 66.552 292.095 66.408C292.239 66.248 292.415 66.168 292.623 66.168C292.847 66.168 293.023 66.248 293.151 66.408C293.279 66.552 293.343 66.832 293.343 67.248C293.343 67.664 293.279 67.952 293.151 68.112C293.023 68.256 292.847 68.328 292.623 68.328Z" fill="white"/>
<path d="M302.417 84.24C300.865 84.24 299.649 83.696 298.769 82.608C297.889 81.52 297.449 79.848 297.449 77.592C297.449 75.352 297.873 73.688 298.721 72.6C299.585 71.512 300.849 70.968 302.513 70.968C304.081 70.968 305.289 71.496 306.137 72.552C306.985 73.608 307.409 75.288 307.409 77.592C307.409 79.848 306.985 81.52 306.137 82.608C305.289 83.696 304.049 84.24 302.417 84.24ZM302.417 83.496C303.393 83.496 304.169 83.256 304.745 82.776C305.337 82.296 305.753 81.616 305.993 80.736C306.249 79.84 306.377 78.792 306.377 77.592C306.377 76.248 306.241 75.144 305.969 74.28C305.697 73.416 305.273 72.776 304.697 72.36C304.137 71.928 303.409 71.712 302.513 71.712C301.553 71.712 300.769 71.936 300.161 72.384C299.569 72.816 299.137 73.464 298.865 74.328C298.609 75.192 298.481 76.28 298.481 77.592C298.481 78.84 298.617 79.904 298.889 80.784C299.161 81.664 299.585 82.336 300.161 82.8C300.753 83.264 301.505 83.496 302.417 83.496Z" fill="white"/>
<path d="M310.026 84V83.4H310.458C310.906 83.4 311.25 83.368 311.49 83.304C311.746 83.24 311.914 83.08 311.994 82.824C312.09 82.552 312.138 82.136 312.138 81.576V73.464C312.138 72.92 312.09 72.528 311.994 72.288C311.914 72.048 311.738 71.896 311.466 71.832C311.21 71.768 310.81 71.736 310.266 71.736H309.906V71.136H312.93L313.098 73.752H313.146C313.354 73.288 313.586 72.84 313.842 72.408C314.114 71.976 314.466 71.624 314.898 71.352C315.33 71.08 315.858 70.944 316.482 70.944C317.154 70.944 317.674 71.096 318.042 71.4C318.426 71.704 318.618 72.104 318.618 72.6C318.618 72.856 318.546 73.088 318.402 73.296C318.274 73.488 318.058 73.584 317.754 73.584C317.754 73.12 317.698 72.76 317.586 72.504C317.474 72.232 317.298 72.04 317.058 71.928C316.834 71.8 316.546 71.736 316.194 71.736C315.73 71.736 315.306 71.896 314.922 72.216C314.554 72.536 314.234 72.96 313.962 73.488C313.706 74.016 313.506 74.608 313.362 75.264C313.218 75.92 313.146 76.592 313.146 77.28V81.6C313.146 82.16 313.194 82.568 313.29 82.824C313.386 83.08 313.554 83.24 313.794 83.304C314.034 83.368 314.378 83.4 314.826 83.4H315.618V84H310.026Z" fill="white"/>
<path d="M325.456 84.24C323.92 84.24 322.704 83.672 321.808 82.536C320.912 81.4 320.464 79.792 320.464 77.712C320.464 75.44 320.872 73.752 321.688 72.648C322.52 71.528 323.704 70.968 325.24 70.968C326.616 70.968 327.696 71.488 328.48 72.528C329.28 73.568 329.68 75.04 329.68 76.944V77.448H321.52C321.504 78.776 321.664 79.888 322 80.784C322.336 81.68 322.808 82.352 323.416 82.8C324.024 83.232 324.736 83.448 325.552 83.448C326.16 83.448 326.68 83.36 327.112 83.184C327.56 82.992 327.944 82.744 328.264 82.44C328.584 82.12 328.832 81.784 329.008 81.432C329.088 81.48 329.153 81.544 329.201 81.624C329.249 81.704 329.272 81.808 329.272 81.936C329.272 82.224 329.128 82.552 328.84 82.92C328.552 83.272 328.128 83.584 327.568 83.856C327.008 84.112 326.304 84.24 325.456 84.24ZM328.624 76.728C328.624 75.72 328.496 74.848 328.24 74.112C327.984 73.36 327.601 72.776 327.089 72.36C326.593 71.928 325.968 71.712 325.216 71.712C324.384 71.712 323.713 71.92 323.201 72.336C322.689 72.736 322.304 73.312 322.048 74.064C321.792 74.816 321.632 75.704 321.568 76.728H328.624Z" fill="white"/>
<path d="M335.921 84.24C335.041 84.24 334.345 84.112 333.833 83.856C333.321 83.6 332.953 83.28 332.729 82.896C332.521 82.512 332.417 82.12 332.417 81.72C332.417 81.448 332.449 81.232 332.513 81.072C332.577 80.896 332.665 80.768 332.777 80.688C332.889 80.608 333.009 80.568 333.137 80.568C333.137 81.16 333.217 81.68 333.377 82.128C333.537 82.576 333.825 82.92 334.241 83.16C334.657 83.4 335.225 83.52 335.945 83.52C336.873 83.52 337.569 83.256 338.033 82.728C338.513 82.2 338.753 81.576 338.753 80.856C338.753 80.456 338.689 80.112 338.561 79.824C338.449 79.52 338.217 79.232 337.865 78.96C337.513 78.672 336.993 78.36 336.305 78.024C335.409 77.544 334.689 77.112 334.145 76.728C333.617 76.344 333.233 75.936 332.993 75.504C332.769 75.072 332.657 74.56 332.657 73.968C332.657 73.072 332.977 72.352 333.617 71.808C334.257 71.248 335.129 70.968 336.233 70.968C336.953 70.968 337.537 71.088 337.985 71.328C338.449 71.552 338.785 71.848 338.993 72.216C339.201 72.568 339.305 72.92 339.305 73.272C339.305 73.608 339.241 73.872 339.113 74.064C338.985 74.256 338.793 74.352 338.537 74.352C338.537 73.36 338.321 72.672 337.889 72.288C337.473 71.888 336.881 71.688 336.113 71.688C335.537 71.688 335.057 71.784 334.673 71.976C334.305 72.168 334.033 72.432 333.857 72.768C333.681 73.088 333.593 73.464 333.593 73.896C333.593 74.376 333.705 74.792 333.929 75.144C334.169 75.496 334.513 75.824 334.961 76.128C335.425 76.416 335.985 76.728 336.641 77.064C337.457 77.464 338.081 77.848 338.513 78.216C338.961 78.584 339.265 78.976 339.425 79.392C339.601 79.792 339.689 80.256 339.689 80.784C339.689 81.84 339.337 82.68 338.633 83.304C337.945 83.928 337.041 84.24 335.921 84.24Z" fill="white"/>
</svg>
